<?xml version="1.0" encoding="UTF-8" standalone="no"?>
<svg
   width="20"
   height="20"
   viewBox="0 0 20 20"
   fill="none"
   version="1.1"
   id="svg4"
   sodipodi:docname="queue_three_dots_clear.svg"
   inkscape:version="1.1.2 (b8e25be833, 2022-02-05)"
   xmlns:inkscape="http://www.inkscape.org/namespaces/inkscape"
   xmlns:sodipodi="http://sodipodi.sourceforge.net/DTD/sodipodi-0.dtd"
   xmlns="http://www.w3.org/2000/svg"
   xmlns:svg="http://www.w3.org/2000/svg">
  <defs
     id="defs8" />
  <sodipodi:namedview
     id="namedview6"
     pagecolor="#ffffff"
     bordercolor="#666666"
     borderopacity="1.0"
     inkscape:pageshadow="2"
     inkscape:pageopacity="0.0"
     inkscape:pagecheckerboard="0"
     showgrid="true"
     inkscape:zoom="15.589286"
     inkscape:cx="10.616266"
     inkscape:cy="13.438717"
     inkscape:window-width="1845"
     inkscape:window-height="1082"
     inkscape:window-x="144"
     inkscape:window-y="90"
     inkscape:window-maximized="0"
     inkscape:current-layer="svg4">
    <inkscape:grid
       type="xygrid"
       id="grid1481" />
  </sodipodi:namedview>
  <circle
     style="fill:#000000;fill-opacity:1;stroke:#000000;stroke-width:0.0999997;stroke-opacity:1"
     id="path927"
     cx="4"
     cy="4"
     r="2.45" />
  <circle
     style="fill:#000000;fill-opacity:1;stroke:#000000;stroke-width:0.0999997;stroke-opacity:1"
     id="path927-2"
     cx="10"
     cy="4"
     r="2.45" />
  <circle
     style="fill:#000000;fill-opacity:1;stroke:#000000;stroke-width:0.0999997;stroke-opacity:1"
     id="path927-0"
     cx="16"
     cy="4"
     r="2.45" />
  <path
     d="m 13.377938,8.1733891 c 0.963401,0 1.748429,0.7636306 1.782855,1.71863 l 0.0012,0.065679 1.926746,-2.863e-4 c 0.275882,0 0.499527,0.2236452 0.499527,0.4995272 0,0.262095 -0.201838,0.477035 -0.458565,0.497871 l -0.04096,0.0017 h -0.333112 l -0.464475,6.156968 c -0.04776,0.6328 -0.575113,1.121851 -1.209683,1.121851 h -3.407002 c -0.63457,0 -1.161928,-0.489051 -1.209683,-1.121851 L 10,10.956509 H 9.6671726 c -0.2620945,0 -0.4770308,-0.201838 -0.4978713,-0.458566 l -0.0017,-0.04095 c 0,-0.262095 0.2018405,-0.4770335 0.4585657,-0.4978716 l 0.040956,-0.0017 h 1.926747 c 0,-0.9414995 0.72931,-1.7126577 1.653805,-1.779345 l 0.06483,-0.00352 z m 1.070415,3.7107709 c -0.184739,0 -0.336681,0.14041 -0.35495,0.320325 l -0.0018,0.03648 v 3.425328 l 0.0018,0.03648 c 0.01827,0.179916 0.170211,0.320325 0.35495,0.320325 0.184738,0 0.33668,-0.140409 0.354949,-0.320325 l 0.0018,-0.03648 v -3.425328 l -0.0018,-0.03648 C 14.785033,12.02457 14.633091,11.88416 14.448353,11.88416 Z m -2.14083,0 c -0.184739,0 -0.33668,0.14041 -0.354949,0.320325 l -0.0018,0.03648 v 3.425328 l 0.0018,0.03648 c 0.01827,0.179916 0.17021,0.320325 0.354949,0.320325 0.184739,0 0.336682,-0.140409 0.354949,-0.320325 l 0.0018,-0.03648 v -3.425328 l -0.0018,-0.03648 C 12.644205,12.02457 12.492262,11.88416 12.307523,11.88416 Z m 1.118227,-2.7102899 -0.04781,-0.00146 c -0.417462,0 -0.758824,0.325891 -0.783544,0.7371588 l -0.0015,0.048101 1.569942,-2.863e-4 c 0,-0.4174609 -0.325891,-0.758823 -0.737159,-0.7835431 z"
     fill="#212121"
     id="path2"
     style="stroke-width:0.999999" />
</svg>
