<?xml version="1.0" encoding="UTF-8" standalone="no"?>
<!-- Generator: Adobe Illustrator 19.0.0, SVG Export Plug-In . SVG Version: 6.00 Build 0)  -->

<svg
   version="1.1"
   id="Layer_1"
   x="0px"
   y="0px"
   viewBox="0 0 20 20"
   xml:space="preserve"
   sodipodi:docname="repeat-svgrepo-com_modified.svg"
   width="20"
   height="20"
   inkscape:version="1.1.2 (b8e25be833, 2022-02-05)"
   xmlns:inkscape="http://www.inkscape.org/namespaces/inkscape"
   xmlns:sodipodi="http://sodipodi.sourceforge.net/DTD/sodipodi-0.dtd"
   xmlns="http://www.w3.org/2000/svg"
   xmlns:svg="http://www.w3.org/2000/svg"><defs
     id="defs45" /><sodipodi:namedview
     id="namedview43"
     pagecolor="#ffffff"
     bordercolor="#666666"
     borderopacity="1.0"
     inkscape:pageshadow="2"
     inkscape:pageopacity="0.0"
     inkscape:pagecheckerboard="0"
     showgrid="false"
     inkscape:zoom="13.640625"
     inkscape:cx="27.63803"
     inkscape:cy="37.608247"
     inkscape:window-width="3440"
     inkscape:window-height="1369"
     inkscape:window-x="-8"
     inkscape:window-y="-8"
     inkscape:window-maximized="1"
     inkscape:current-layer="Layer_1" /><g
     id="g10"
     transform="matrix(0.0342194,0,0,0.03717104,1.239833,0.48430223)"
     style="stroke-width:28.0389"><path
       d="M 482.197,374.266 403.48,328.818 c -15.89,-9.174 -35.829,2.308 -35.829,20.686 v 27.587 H 151.058 C 87.461,377.09 35.721,325.351 35.721,261.753 c 0,-9.864 -7.997,-17.86 -17.86,-17.86 -9.864,0 -17.86,7.997 -17.86,17.86 0,83.294 67.765,151.058 151.058,151.058 H 367.65 v 27.587 c 0,18.347 19.913,29.876 35.829,20.686 l 78.717,-45.447 c 15.89,-9.172 15.917,-32.181 10e-4,-41.371 z"
       id="path2"
       style="fill:#000000;fill-opacity:1;stroke:#000000;stroke-width:14.0194;stroke-miterlimit:4;stroke-dasharray:none;stroke-opacity:1" /><path
       d="M 360.942,99.189 H 144.349 V 71.601 c 0,-18.347 -19.913,-29.876 -35.829,-20.686 L 29.803,96.362 c -15.889,9.173 -15.917,32.182 0,41.372 l 78.717,45.448 c 15.89,9.174 35.829,-2.309 35.829,-20.686 v -27.587 h 216.593 c 63.598,0 115.337,51.739 115.337,115.337 0,9.864 7.997,17.86 17.86,17.86 9.864,0 17.86,-7.997 17.86,-17.86 C 512,166.953 444.235,99.189 360.942,99.189 Z"
       id="path4"
       style="fill:#000000;fill-opacity:1;stroke:#000000;stroke-width:14.0194;stroke-miterlimit:4;stroke-dasharray:none;stroke-opacity:1" /></g></svg>
