<?xml version="1.0" encoding="UTF-8" standalone="no"?>
<!-- Created with Inkscape (http://www.inkscape.org/) -->

<svg
   width="20mm"
   height="20mm"
   viewBox="0 0 20 20"
   version="1.1"
   id="svg904"
   inkscape:version="1.1.2 (b8e25be833, 2022-02-05)"
   sodipodi:docname="shuffle-random-svgrepo-com_modified.svg"
   xmlns:inkscape="http://www.inkscape.org/namespaces/inkscape"
   xmlns:sodipodi="http://sodipodi.sourceforge.net/DTD/sodipodi-0.dtd"
   xmlns="http://www.w3.org/2000/svg"
   xmlns:svg="http://www.w3.org/2000/svg">
  <sodipodi:namedview
     id="namedview906"
     pagecolor="#ffffff"
     bordercolor="#666666"
     borderopacity="1.0"
     inkscape:pageshadow="2"
     inkscape:pageopacity="0.0"
     inkscape:pagecheckerboard="0"
     inkscape:document-units="mm"
     showgrid="false"
     inkscape:zoom="8.7988368"
     inkscape:cx="-38.073214"
     inkscape:cy="61.258097"
     inkscape:window-width="3440"
     inkscape:window-height="1369"
     inkscape:window-x="-8"
     inkscape:window-y="-8"
     inkscape:window-maximized="1"
     inkscape:current-layer="layer1" />
  <defs
     id="defs901" />
  <g
     inkscape:label="Taso 1"
     inkscape:groupmode="layer"
     id="layer1">
    <path
       d="M 19,5.027885 15.252555,1 v 3.198854 h -0.366856 c -3.261199,0 -4.883801,2.852473 -6.3153631,5.369179 -1.3967578,2.455332 -2.6029687,4.575916 -4.9989023,4.575916 H 1 v 1.657534 h 2.5714336 c 3.2611992,0 4.8838008,-2.852473 6.3153633,-5.369179 C 11.283555,7.976897 12.489766,5.856313 14.885699,5.856313 h 0.366856 v 3.198514 z"
       id="path8"
       style="fill:#000000;fill-opacity:1" />
    <path
       d="M 3.5714336,4.198816 H 1 v 1.657535 h 2.5714336 c 1.7144297,0 2.8196367,1.085937 3.8214141,2.603235 C 7.6690352,7.975197 7.9602695,7.471584 8.2757266,6.971974 7.139125,5.421402 5.7064375,4.198816 3.5714336,4.198816 Z"
       id="path14"
       style="fill:#000000;fill-opacity:1" />
    <path
       d="m 19,14.973056 -3.747445,-4.027923 v 3.198816 h -0.366856 c -1.714429,0 -2.819636,-1.085937 -3.821414,-2.603236 -0.276187,0.484389 -0.567422,0.988002 -0.882879,1.487612 1.136567,1.550497 2.569254,2.773158 4.704258,2.773158 h 0.366856 v 3.198514 z"
       id="path2"
       style="fill:#000000;fill-opacity:1" />
  </g>
</svg>
