<?xml version="1.0" encoding="UTF-8" standalone="no"?>
<svg
   width="20"
   height="20"
   viewBox="0 0 20 20"
   fill="none"
   version="1.1"
   id="svg4"
   sodipodi:docname="stack_queue_three_dots.svg"
   inkscape:version="1.1.2 (b8e25be833, 2022-02-05)"
   xmlns:inkscape="http://www.inkscape.org/namespaces/inkscape"
   xmlns:sodipodi="http://sodipodi.sourceforge.net/DTD/sodipodi-0.dtd"
   xmlns="http://www.w3.org/2000/svg"
   xmlns:svg="http://www.w3.org/2000/svg">
  <defs
     id="defs8" />
  <sodipodi:namedview
     id="namedview6"
     pagecolor="#ffffff"
     bordercolor="#666666"
     borderopacity="1.0"
     inkscape:pageshadow="2"
     inkscape:pageopacity="0.0"
     inkscape:pagecheckerboard="0"
     showgrid="false"
     inkscape:zoom="31.178571"
     inkscape:cx="14.016037"
     inkscape:cy="8.8041237"
     inkscape:window-width="1978"
     inkscape:window-height="1082"
     inkscape:window-x="766"
     inkscape:window-y="213"
     inkscape:window-maximized="0"
     inkscape:current-layer="svg4">
    <inkscape:grid
       type="xygrid"
       id="grid1481" />
  </sodipodi:namedview>
  <ellipse
     style="fill:#000000;fill-opacity:1;stroke:#000000;stroke-width:0.0999997;stroke-opacity:1"
     id="path927"
     cx="-5.5018439"
     cy="-15.999999"
     transform="scale(-1)"
     rx="2.4518442"
     ry="2.45" />
  <ellipse
     style="fill:#000000;fill-opacity:1;stroke:#000000;stroke-width:0.0999997;stroke-opacity:1"
     id="path927-2"
     cx="-5.5018439"
     cy="-10"
     transform="scale(-1)"
     rx="2.4518442"
     ry="2.45" />
  <ellipse
     style="fill:#000000;fill-opacity:1;stroke:#000000;stroke-width:0.0999997;stroke-opacity:1"
     id="path927-0"
     cx="-5.5018439"
     cy="-3.9999998"
     transform="scale(-1)"
     rx="2.4518442"
     ry="2.45" />
  <path
     d="m 13.438338,2.1420657 -1.445846,2.3628179 c -0.291854,0.4769647 0.07343,1.0754655 0.658089,1.0754655 H 13.52821 V 12.08174 c -3.2e-5,1.908966 -1.646014,3.462026 -3.6692686,3.462026 -0.3138061,0 -0.5681838,0.240043 -0.5681838,0.536097 0,0.296083 0.2544102,0.536096 0.5681838,0.536096 2.6498476,0 4.8056366,-2.034076 4.8056366,-4.53425 V 5.5803798 h 0.877631 c 0.583676,0 0.95045,-0.597721 0.658087,-1.0754656 L 14.754482,2.1420956 C 14.462691,1.6651317 13.730701,1.6643212 13.438338,2.1420657 Z"
     id="path2"
     style="fill:#000000;fill-opacity:1;stroke:#000000;stroke-width:0.499998;stroke-miterlimit:4;stroke-dasharray:none;stroke-opacity:1" />
</svg>
