<?xml version="1.0" encoding="UTF-8" standalone="no"?>
<!-- Generator: Adobe Illustrator 19.0.0, SVG Export Plug-In . SVG Version: 6.00 Build 0)  -->

<svg
   version="1.1"
   id="Capa_1"
   x="0px"
   y="0px"
   viewBox="0 0 220.00001 220.00001"
   xml:space="preserve"
   sodipodi:docname="music-note-svgrepo-com_modified.svg"
   width="220"
   height="220"
   inkscape:version="1.1.2 (b8e25be833, 2022-02-05)"
   xmlns:inkscape="http://www.inkscape.org/namespaces/inkscape"
   xmlns:sodipodi="http://sodipodi.sourceforge.net/DTD/sodipodi-0.dtd"
   xmlns:xlink="http://www.w3.org/1999/xlink"
   xmlns="http://www.w3.org/2000/svg"
   xmlns:svg="http://www.w3.org/2000/svg"><defs
   id="defs36"><linearGradient
     inkscape:collect="always"
     id="linearGradient5221"><stop
       style="stop-color:#eaff9f;stop-opacity:1"
       offset="0"
       id="stop5217" /><stop
       style="stop-color:#ecff59;stop-opacity:0.29411766"
       offset="1"
       id="stop5219" /></linearGradient><linearGradient
     inkscape:collect="always"
     xlink:href="#linearGradient5221"
     id="linearGradient5223"
     x1="75.073624"
     y1="35.73035"
     x2="160.87128"
     y2="199.37534"
     gradientUnits="userSpaceOnUse" /></defs><sodipodi:namedview
   id="namedview34"
   pagecolor="#ffffff"
   bordercolor="#666666"
   borderopacity="1.0"
   inkscape:pageshadow="2"
   inkscape:pageopacity="0.0"
   inkscape:pagecheckerboard="0"
   showgrid="false"
   inkscape:zoom="2.3832079"
   inkscape:cx="182.94669"
   inkscape:cy="182.94669"
   inkscape:window-width="3440"
   inkscape:window-height="1369"
   inkscape:window-x="-8"
   inkscape:window-y="-8"
   inkscape:window-maximized="1"
   inkscape:current-layer="Capa_1" />
<rect
   style="mix-blend-mode:normal;fill:#819b27;fill-opacity:1;stroke:none;stroke-width:0.0834071"
   id="rect875-7"
   width="190.91914"
   height="175.81343"
   x="0.15067866"
   y="0.15067866"
   rx="26.073259"
   ry="24.013382"
   transform="matrix(1.1506041,0,0,1.2493033,-0.00954592,-0.01036478)" /><rect
   style="opacity:0.51515152;mix-blend-mode:normal;fill:url(#linearGradient5223);fill-opacity:1;fill-rule:nonzero;stroke:none;stroke-width:0.1;stroke-miterlimit:4;stroke-dasharray:none"
   id="rect875"
   width="210"
   height="210"
   x="5"
   y="5"
   rx="30.000002"
   ry="30.000002" /><path
   id="XMLID_526_"
   d="M 67.999997,50.028499 V 142.71834 C 64.2458,141.63139 60.209003,141.03386 56,141.03386 c -19.882197,0 -36,13.20007 -36,29.48308 C 20,186.79993 36.117803,200 56,200 75.882197,200 92,186.79993 92,170.51694 V 84.622942 l 84,-19.655374 v 53.181542 c -3.7542,-1.08694 -7.79101,-1.68445 -12,-1.68445 -19.88221,0 -36,13.20004 -36,29.48305 0,16.28301 16.11779,29.48306 36,29.48306 19.8822,0 36,-13.20005 36,-29.48306 V 20 Z"
   style="stroke-width:0.999998;fill-opacity:0.99607843;fill:#ffffff;stroke:none" />
<g
   id="g3">
</g>
<g
   id="g5">
</g>
<g
   id="g7">
</g>
<g
   id="g9">
</g>
<g
   id="g11">
</g>
<g
   id="g13">
</g>
<g
   id="g15">
</g>
<g
   id="g17">
</g>
<g
   id="g19">
</g>
<g
   id="g21">
</g>
<g
   id="g23">
</g>
<g
   id="g25">
</g>
<g
   id="g27">
</g>
<g
   id="g29">
</g>
<g
   id="g31">
</g>
</svg>
